<svg version="1.1" xmlns="http://www.w3.org/2000/svg" style="display: block;" viewBox="0 0 2048 2048" width="512" height="512" preserveAspectRatio="none">
<path transform="translate(0,0)" fill="rgb(26,25,25)" d="M 1389.94 266.385 C 1446.92 263.821 1456.95 337.503 1407.43 358.346 L 1407.43 512.437 C 1479.26 510.406 1465.93 578.007 1466.97 623.674 C 1468.28 680.31 1474.7 762.443 1385.01 733.102 C 1385.74 831.309 1341.38 812.843 1263.57 812.672 L 1263.57 884.192 C 1312.76 887.52 1352.06 876.45 1369.92 939.091 C 1421.2 943.114 1449.62 919.842 1446.85 973.255 C 1484.74 974.265 1511.33 989.258 1538.17 1015.11 C 1584.62 1059.85 1578.44 1113.55 1578.43 1172.06 L 1578.42 1295 C 1617.39 1314.73 1608.99 1333.69 1611.17 1369.58 C 1614.14 1418.39 1604.79 1454.77 1552.93 1471.29 C 1538.14 1476 1541.9 1435.27 1541.91 1427.39 L 1541.99 1365.01 L 1490.2 1365.01 C 1489.94 1381.8 1492.74 1457.46 1487.83 1467.22 C 1476.15 1490.45 1426.57 1452.71 1419.87 1421.91 C 1416.83 1407.9 1416.26 1348.46 1418.65 1333.94 C 1422.62 1309.81 1439 1299.07 1462.22 1295 L 1462.26 1175.22 C 1462.26 1138.87 1468.41 1115.64 1446.85 1085.17 C 1432.89 1108.26 1397.75 1099.08 1369.92 1098.96 C 1369.95 1172.73 1370.03 1246.53 1369.92 1320.33 C 1369.82 1382.93 1323.91 1384.03 1274.97 1383.26 C 1274.13 1408.19 1274.93 1438.09 1274.93 1463.4 L 1274.97 1623.32 C 1335.06 1653.99 1378.12 1692.4 1379.05 1766.18 C 1379.34 1789.73 1293.29 1779.05 1271.94 1779.06 L 1148.45 1779.05 C 1091.01 1779.01 1050.86 1798.21 1069.72 1731.87 C 1081.67 1689.86 1108.16 1656.6 1146.01 1634.82 L 1146.01 1383.26 L 903.049 1383.26 L 903.049 1634.82 C 936.765 1650.91 965.148 1688.97 975.024 1724.68 C 991.778 1785.27 983.791 1778.97 931.822 1779.02 L 747.434 1779.04 C 671.247 1779 669.114 1796.85 668.525 1736.22 C 672.739 1730.56 680.079 1707.45 684.457 1698.72 C 702.773 1662.22 735.304 1636.48 773.45 1623.32 C 774.368 1543.95 773.383 1462.8 773.45 1383.26 C 662.911 1383.66 678.28 1357.3 678.319 1264.64 L 678.28 1098.96 C 655.418 1097.42 615.215 1107.22 605.014 1088.44 C 578.401 1108.76 586.381 1140.61 586.376 1171.8 L 586.408 1290.36 C 606.936 1298.17 626.625 1310.63 630.604 1334.01 C 631.392 1338.63 631.824 1413 630.833 1417.51 C 623.153 1452.49 590.21 1473.95 558.071 1479.42 L 558.071 1365.01 L 511.741 1365.01 L 511.741 1479.42 C 431.577 1464.32 441.435 1409.82 438.503 1350.74 C 437.251 1325.5 445.668 1304.02 471.007 1295 L 470.98 1171.93 C 470.937 1140.24 467.516 1105.21 474.999 1074.52 C 490.764 1009.86 541.745 975.814 605.014 973.255 C 604.385 923.047 623.298 938.816 678.28 939.091 C 684.488 878.947 744.026 884.131 786.941 884.192 L 786.941 812.672 C 703.885 812.992 662.48 833.515 662.189 733.102 C 626.997 748.706 581.734 727.016 584.538 685.587 C 587.674 645.72 587.19 605.617 584.393 565.764 C 581.802 528.839 611.5 513.182 643.537 512.437 C 642.725 497.045 643.458 477.043 643.483 461.199 L 643.537 360.533 C 570.568 335.468 620.221 242.307 677.385 272.503 C 713.828 291.753 712.879 343.928 668.525 360.533 C 668.484 412.015 670.152 471.739 668.525 522.399 C 672.329 525.986 677.915 530.416 682.025 533.842 C 787.782 206.527 1254.03 218.271 1365.84 530.637 C 1371.97 524.609 1374.86 521.513 1381.96 516.747 L 1381.96 358.346 C 1329.74 338.367 1337 274.193 1389.94 266.385 z M 869.508 667.707 C 912.219 666.959 946.292 631.827 945.733 589.112 C 945.173 546.397 910.191 512.169 867.475 512.54 C 824.49 512.914 790.001 548.162 790.564 591.145 C 791.127 634.127 826.528 668.46 869.508 667.707 z M 496.888 1105.45 L 511.741 1105.45 C 530.115 1104.02 543.041 1103.1 561.483 1105.45 C 570.237 1081.68 578.893 1068.43 605.014 1062.3 L 605.014 998.618 L 590.825 998.618 C 530.929 1011.78 502.835 1044.07 496.888 1105.45 z M 1446.85 1056.95 C 1469.7 1070.8 1474.75 1081.78 1486.51 1105.45 C 1508.94 1105.51 1531.61 1105.76 1554.03 1105.45 C 1549.48 1050.92 1503.59 998.617 1446.85 998.618 L 1446.85 1056.95 z M 1486.51 1295 L 1554.03 1295 L 1554.03 1211.39 C 1531.73 1211.33 1508.75 1210.98 1486.51 1211.39 C 1486.03 1238.8 1487.4 1267.96 1486.51 1295 z M 798.874 1448.97 L 878.245 1448.97 L 878.245 1383.26 L 798.874 1383.26 C 798.397 1404.78 798.808 1427.37 798.874 1448.97 z M 678.28 1074.28 L 678.251 993.963 C 678.257 989.916 679.409 966.382 678.28 965.015 L 630.677 965.015 C 630.676 974.635 630.017 1072.68 630.677 1074.28 L 678.28 1074.28 z M 798.874 1534.67 L 878.245 1534.67 L 878.245 1473.06 C 852.508 1473.04 824.405 1472.43 798.874 1473.06 L 798.874 1534.67 z M 561.483 1130.53 C 549.764 1129.25 508.314 1128.81 496.888 1130.53 C 497.304 1150.75 496.823 1170.81 496.888 1191 L 561.483 1191 C 561.466 1171.57 561.008 1149.78 561.483 1130.53 z M 1554.03 1186.26 C 1554.34 1167.77 1554.1 1149.04 1554.03 1130.53 L 1486.51 1130.53 L 1486.51 1186.26 C 1508.82 1186.76 1531.65 1186.2 1554.03 1186.26 z M 1217.1 378.545 C 1107.5 291.972 900.332 297.624 800.976 398.523 C 807.074 401.188 833.295 380.464 840.786 375.843 C 949.629 308.693 1069.62 307.593 1182.22 362.2 C 1188.68 365.328 1209.54 379.271 1215.46 380.188 L 1217.1 378.545 z M 652.508 292.247 C 640.108 293.937 631.415 305.345 633.075 317.749 C 634.736 330.153 646.123 338.873 658.531 337.242 C 670.981 335.606 679.737 324.172 678.071 311.726 C 676.405 299.28 664.95 290.551 652.508 292.247 z M 1388.94 292.28 C 1377.58 294.926 1370.51 306.29 1373.17 317.655 C 1375.82 329.02 1387.19 336.076 1398.55 333.41 C 1409.9 330.748 1416.95 319.395 1414.3 308.044 C 1411.64 296.693 1400.3 289.638 1388.94 292.28 z M 867.316 1559.76 L 798.874 1559.76 L 798.874 1616.02 C 806.95 1615.7 812.689 1615.59 820.728 1616.02 C 843.384 1614.18 856.156 1616.86 878.245 1623.32 L 878.245 1559.76 L 867.316 1559.76 z M 502.896 1215.52 C 490.318 1216.1 496.853 1275.98 496.888 1290.36 L 558.071 1290.36 L 560.453 1290.17 C 562.827 1285.44 561.316 1225.89 561.483 1215.52 L 502.896 1215.52 z M 1177.65 1473.06 C 1164.53 1474.53 1170.73 1520.64 1170.77 1534.67 L 1245.25 1534.67 L 1249.04 1534.49 C 1252.07 1529.99 1250.89 1482.48 1250.86 1473.06 L 1177.65 1473.06 z"/>
<path transform="translate(0,0)" fill="rgb(213,214,214)" d="M 962.339 908.562 L 1265.97 908.519 C 1306.62 908.288 1345.06 904.209 1345.15 956.624 L 1345.2 1288.31 C 1345.15 1378.16 1321.03 1358.78 1241.09 1358.75 L 1086.5 1358.79 L 769.003 1358.85 C 746.464 1358.93 703.131 1366.34 702.692 1332.63 C 701.495 1240.69 702.024 1148.64 702.036 1056.67 L 702.052 980.88 C 702.056 967.436 701.665 952.939 703.04 939.649 C 707.347 898.021 776.527 908.583 804.959 908.599 L 962.339 908.562 z"/>
<path transform="translate(0,0)" fill="rgb(26,25,25)" d="M 878.245 1019.01 C 892.565 1018.2 915.266 1018.98 930.315 1018.99 L 1124.85 1018.99 C 1194.88 1018.99 1213.75 1016.58 1213.01 1096.25 C 1212.51 1148.96 1232.15 1232.57 1173.15 1249.09 L 916.277 1249.22 C 882.01 1249.4 838.709 1250.25 839.265 1200.46 C 839.543 1175.47 838.306 1149.3 839.248 1124.36 C 840.785 1083.73 826.99 1032.1 878.245 1019.01 z"/>
<path transform="translate(0,0)" fill="rgb(213,214,214)" d="M 884.12 1043.01 C 914.616 1042.24 1162.37 1040.38 1174.38 1044.58 C 1198.14 1052.88 1188.94 1119.13 1188.87 1140.93 C 1188.79 1165.49 1197.93 1212.25 1170.77 1224.89 L 976.706 1224.85 C 947.747 1224.86 880.629 1235.18 867.316 1211.39 C 859.915 1189.98 860.672 1064.9 866.54 1054.52 C 870.166 1048.1 877.5 1045.17 884.12 1043.01 z"/>
<path transform="translate(0,0)" fill="rgb(26,25,25)" d="M 924.598 1085.17 C 949.951 1084.99 1128.5 1082.94 1137.4 1087.2 C 1148.83 1092.68 1143.48 1108.19 1130.22 1109.49 L 994.851 1109.5 C 985.451 1109.5 920.783 1111.74 916.46 1107.58 C 903.745 1095.34 912.631 1088.12 924.598 1085.17 z"/>
<path transform="translate(0,0)" fill="rgb(26,25,25)" d="M 924.598 1154.35 C 941.809 1154.06 1131.21 1152.52 1136.87 1155.86 C 1149.82 1163.5 1142.25 1176.77 1130.22 1178.63 L 924.759 1178.64 C 906.189 1178.56 906.547 1157.36 924.598 1154.35 z"/>
<path transform="translate(0,0)" fill="rgb(213,214,214)" d="M 800.976 398.523 C 807.074 401.188 833.295 380.464 840.786 375.843 C 949.629 308.693 1069.62 307.593 1182.22 362.2 C 1188.68 365.328 1209.54 379.271 1215.46 380.188 L 1217.1 378.545 C 1289.06 418.559 1347.06 523.006 1356.7 602.874 C 1361.92 648.969 1359.32 695.954 1359.97 742.202 C 1360.8 801.777 1337.62 788.477 1286.42 788.439 L 715.794 788.368 C 686.642 788.296 687.53 778.252 687.707 751.495 C 688.48 634.244 680.546 530.803 765.932 433.622 C 772.08 426.625 793.175 402.218 800.976 398.523 z M 869.508 667.707 C 912.219 666.959 946.292 631.827 945.733 589.112 C 945.173 546.397 910.191 512.169 867.475 512.54 C 824.49 512.914 790.001 548.162 790.564 591.145 C 791.127 634.127 826.528 668.46 869.508 667.707 z"/>
<path transform="translate(0,0)" fill="rgb(26,25,25)" d="M 859.318 488.079 C 915.752 483.336 965.349 525.234 970.104 581.667 C 974.859 638.101 932.972 687.707 876.54 692.474 C 820.09 697.243 770.466 655.34 765.709 598.89 C 760.953 542.439 802.866 492.824 859.318 488.079 z M 869.508 667.707 C 912.219 666.959 946.292 631.827 945.733 589.112 C 945.173 546.397 910.191 512.169 867.475 512.54 C 824.49 512.914 790.001 548.162 790.564 591.145 C 791.127 634.127 826.528 668.46 869.508 667.707 z"/>
<path transform="translate(0,0)" fill="rgb(26,25,25)" d="M 861.627 541.755 C 887.663 538.326 911.624 556.449 915.411 582.436 C 919.197 608.422 901.405 632.629 875.473 636.773 C 858.379 639.504 841.137 632.822 830.348 619.284 C 819.559 605.746 816.892 587.448 823.369 571.394 C 829.847 555.34 844.464 544.016 861.627 541.755 z M 868.903 598.853 C 877.407 591.025 884.761 578.998 867.316 576.646 C 854.083 584.157 856.953 597.262 868.903 598.853 z"/>
<path transform="translate(0,0)" fill="rgb(255,194,56)" d="M 861.386 566.152 C 873.84 562.486 886.922 569.543 890.698 581.965 C 894.474 594.386 887.534 607.53 875.147 611.417 C 862.603 615.353 849.255 608.305 845.431 595.726 C 841.607 583.147 848.773 569.863 861.386 566.152 z M 868.903 598.853 C 877.407 591.025 884.761 578.998 867.316 576.646 C 854.083 584.157 856.953 597.262 868.903 598.853 z"/>
<path transform="translate(0,0)" fill="rgb(26,25,25)" d="M 1179.52 487.524 C 1235.95 486.29 1282.74 530.962 1284.11 587.392 C 1285.49 643.823 1240.93 690.722 1184.51 692.238 C 1127.88 693.761 1080.78 649.013 1079.4 592.383 C 1078.02 535.752 1122.88 488.763 1179.52 487.524 z"/>
<path transform="translate(0,0)" fill="rgb(253,253,253)" d="M 1176.33 512.802 C 1218.69 509.839 1255.53 541.568 1258.88 583.904 C 1262.23 626.241 1230.84 663.367 1188.53 667.101 C 1145.68 670.883 1107.97 638.994 1104.58 596.109 C 1101.18 553.224 1133.41 515.803 1176.33 512.802 z"/>
<path transform="translate(0,0)" fill="rgb(26,25,25)" d="M 1175.57 541.619 C 1201.82 538.014 1226 556.391 1229.56 582.64 C 1233.12 608.889 1214.7 633.044 1188.45 636.557 C 1162.26 640.062 1138.18 621.698 1134.63 595.514 C 1131.07 569.33 1149.4 545.216 1175.57 541.619 z"/>
<path transform="translate(0,0)" fill="rgb(255,194,56)" d="M 1178.27 565.873 C 1186.61 564.633 1194.98 567.981 1200.16 574.636 C 1205.34 581.291 1206.54 590.222 1203.3 598.009 C 1200.06 605.796 1192.87 611.234 1184.49 612.24 C 1171.79 613.766 1160.22 604.806 1158.52 592.128 C 1156.82 579.449 1165.61 567.753 1178.27 565.873 z"/>
<path transform="translate(0,0)" fill="rgb(253,253,253)" d="M 1177.65 576.646 C 1195.74 575.533 1196.24 588.898 1185.44 598.853 C 1173.38 598.018 1163.07 582.999 1177.65 576.646 z"/>
<path transform="translate(0,0)" fill="rgb(163,162,162)" d="M 814.569 812.672 L 1238.96 812.672 C 1238.96 819.744 1239.77 882.161 1238.96 884.192 L 811.757 884.192 C 811.747 874.501 810.638 818.644 812.484 813.168 L 814.569 812.672 z"/>
<path transform="translate(0,0)" fill="rgb(213,214,214)" d="M 723.521 1685.72 C 759.43 1638.42 833.313 1628.7 884.12 1654.57 C 923.713 1671.96 951.716 1711.24 955.404 1754.26 L 722.655 1754.37 C 715.034 1754.4 700.71 1754.87 693.667 1754.26 C 695.096 1747.05 695.771 1743.1 698.392 1736.22 C 701.524 1718.14 711.226 1699.26 723.521 1685.72 z"/>
<path transform="translate(0,0)" fill="rgb(253,253,253)" d="M 723.521 1685.72 C 759.43 1638.42 833.313 1628.7 884.12 1654.57 C 875.825 1659.5 858.591 1648.68 849.713 1647.27 C 834.243 1644.98 818.922 1646.7 803.561 1646.74 C 795.407 1646.76 781.661 1640.63 777.506 1655.89 C 770.771 1660.98 731.199 1685.4 724.147 1686.08 L 723.521 1685.72 z"/>
<path transform="translate(0,0)" fill="rgb(213,214,214)" d="M 1099.17 1754.26 C 1086.09 1755.06 1094.87 1737.47 1096.97 1730.31 C 1119.71 1653.07 1184.17 1642.11 1250.86 1641.16 C 1305.78 1669.55 1342.37 1679.84 1354.24 1754.26 L 1099.17 1754.26 z"/>
<path transform="translate(0,0)" fill="rgb(253,253,253)" d="M 1099.17 1754.26 C 1086.09 1755.06 1094.87 1737.47 1096.97 1730.31 C 1119.71 1653.07 1184.17 1642.11 1250.86 1641.16 C 1231.19 1651.24 1189.05 1640.1 1185.36 1648.57 C 1197.88 1650.44 1179.24 1656.01 1176.49 1657.39 C 1160.6 1665.37 1145.46 1674.33 1131.95 1685.99 C 1127.75 1689.48 1117.77 1705.7 1113.6 1704.4 L 1112.44 1701.3 C 1108.13 1709.06 1102.54 1718.16 1100.18 1726.61 C 1102.96 1729.52 1105.43 1729.55 1102.97 1733.83 L 1101.78 1734.28 C 1096.38 1736.4 1093.24 1738.49 1095.34 1744.68 C 1106.7 1736.13 1103.37 1734.53 1110.68 1725.84 C 1106.28 1735.3 1104.34 1747.42 1101.54 1753 L 1099.17 1754.26 z"/>
<path transform="translate(0,0)" fill="rgb(163,162,162)" d="M 1402.63 537.216 C 1424.13 535.891 1442.49 542.798 1442.22 567.167 C 1441.75 610.213 1445.17 656.179 1440.14 698.879 C 1439.41 705.077 1426.76 711.93 1421.44 714.698 C 1404.82 714.167 1397.54 714.338 1385.01 702.364 L 1384.62 554.979 C 1384.62 543.439 1392.86 539.94 1402.63 537.216 z"/>
<path transform="translate(0,0)" fill="rgb(163,162,162)" d="M 630.677 537.216 C 681.309 534.104 663.974 595.374 662.807 629.803 C 661.988 653.951 662.163 678.14 662.189 702.364 C 655.483 709.87 652.698 711.529 643.537 714.698 C 630.685 715.623 617.826 711.093 611.949 698.626 C 603.906 681.561 606.263 563.862 610.225 553.977 C 613.883 544.851 622.23 540.869 630.677 537.216 z"/>
<path transform="translate(0,0)" fill="rgb(163,162,162)" d="M 487.464 1314.86 C 513.118 1314.79 538.76 1314.72 564.434 1314.76 C 615.431 1314.84 607.263 1353.13 607.836 1392.38 C 608.215 1418.32 600.062 1431.93 581.907 1448.97 C 581.826 1413.62 582.47 1377.49 581.907 1342.24 L 580.288 1340.19 C 574.59 1337.82 498.244 1337.85 491.323 1340.08 C 485.763 1347.27 487.38 1374.14 487.4 1383.85 L 487.464 1443.97 C 479.234 1437.78 470.567 1430.15 466.815 1420.32 C 458.163 1397.65 451.586 1327.72 487.464 1314.86 z"/>
<path transform="translate(0,0)" fill="rgb(163,162,162)" d="M 1458.15 1320.78 C 1495.12 1320.78 1535.21 1319.97 1571.89 1320.78 C 1597.98 1338.04 1593.65 1416.59 1565.98 1437.41 C 1566.02 1423.77 1568.56 1351.65 1563.3 1344.58 C 1557.27 1336.46 1478.23 1335.07 1467.33 1345.76 C 1461.02 1359.6 1467.76 1426.33 1464.94 1443.97 C 1458.07 1439.1 1454.1 1436.39 1449.44 1429.26 C 1438.25 1410.02 1435.19 1334.82 1458.15 1320.78 z"/>
<path transform="translate(0,0)" fill="rgb(213,214,214)" d="M 1369.92 965.015 L 1421.44 965.015 L 1421.44 1074.28 C 1404.35 1074.36 1386.97 1074.61 1369.92 1074.28 L 1369.92 965.015 z"/>
<path transform="translate(0,0)" fill="rgb(213,214,214)" d="M 1170.77 1383.26 C 1178.48 1382.39 1193.58 1382.99 1201.88 1383.09 L 1250.86 1383.26 L 1250.86 1448.97 L 1170.77 1448.97 C 1170.74 1442.47 1170.24 1423.04 1170.77 1417.43 C 1170.29 1407.47 1170.72 1393.49 1170.77 1383.26 z"/>
<path transform="translate(0,0)" fill="rgb(213,214,214)" d="M 1170.77 1383.26 C 1174.76 1383.96 1184.08 1382.3 1186.54 1385.11 L 1180.82 1386.16 L 1185.49 1386.81 C 1184.13 1390.81 1174.69 1392.78 1170.77 1393.89 C 1171.35 1400.74 1173 1411.38 1170.77 1417.43 C 1170.29 1407.47 1170.72 1393.49 1170.77 1383.26 z"/>
<path transform="translate(0,0)" fill="rgb(213,214,214)" d="M 1185.44 1559.76 L 1250.86 1559.76 L 1250.86 1616.02 C 1219.6 1615.03 1201.47 1614.48 1170.77 1623.32 C 1170.48 1609.41 1168.27 1572.17 1170.77 1559.76 L 1185.44 1559.76 z"/>
<path transform="translate(0,0)" fill="rgb(213,214,214)" d="M 1170.77 1559.76 L 1185.44 1559.76 L 1181.94 1565.26 C 1168.19 1586.49 1172.81 1576.38 1170.77 1559.76 z"/>
</svg>